<svg id="Layer_1" data-name="Layer 1" xmlns="http://www.w3.org/2000/svg" viewBox="0 0 106.59 122.88"><defs><style>.cls-1{fill-rule:evenodd;}</style></defs><title>psychology</title><path class="cls-1" d="M21.56,91.08a1.86,1.86,0,1,1,1.61,3.35,10.09,10.09,0,0,1-5.53.83,19.11,19.11,0,0,1-3.53-.75c.05.48.1.95.17,1.43.18,1.34.42,2.72.73,4.13a1.88,1.88,0,0,1-.23,1.38,14.72,14.72,0,0,0-1.67,5.33,4.33,4.33,0,0,0,1.11,3.48,7.68,7.68,0,0,0,4.06,1.84,29.85,29.85,0,0,0,10.37-.34,66,66,0,0,0,11.84-3.26,32,32,0,0,0,8.3-4.5c2.18-1.74,3.18-4.59,4-7,.18-.51.35-1,.43-1.2l.25-.67c1.07-2.94,2.93-8,5.34-9.9a1.86,1.86,0,1,1,2.27,3c-1.56,1.19-3.18,5.65-4.12,8.23-.19.53-.15.43-.25.69-.2.55-.31.84-.41,1.14-1,2.91-2.21,6.31-5.23,8.72a35.61,35.61,0,0,1-9.27,5c-.79.31-1.6.6-2.41.87a29.69,29.69,0,0,1-.13,3.65,30,30,0,0,1-.91,5,1.86,1.86,0,0,1-3.6-1,27.26,27.26,0,0,0,.81-4.39c.07-.72.11-1.44.12-2.17-2.19.6-4.37,1.08-6.41,1.45a33.47,33.47,0,0,1-11.7.34,11.24,11.24,0,0,1-6-2.88,7.85,7.85,0,0,1-2.17-6.32,17.63,17.63,0,0,1,1.84-6.3c-.25-1.23-.47-2.5-.64-3.82-.19-1.47-.32-3-.38-4.44,0-.06,0-.12,0-.17l0-.19c-.27-2.8-.3-5.54-.34-8.31V82.7l-4.3-.25h0a5.76,5.76,0,0,1-3-.92,5.34,5.34,0,0,1-1.9-2.15,6.74,6.74,0,0,1-.61-3,9.43,9.43,0,0,1,1.62-4.85l4.6-9.41c2.26-4.61,2.23-5.22,2.14-7.64,0-1.09-.1-2.48,0-4.57a35,35,0,0,1,.9-7.09,23.89,23.89,0,0,1,1.55-4.5L2.41,34.71a1.86,1.86,0,0,1-1-2.45,3.07,3.07,0,0,1,.2-.36h0c20-27.26,42.58-34.75,61.69-31,.78.15,1.56.32,2.33.51a10.46,10.46,0,0,0-2.09,3.33l-.95-.2c-17.37-3.4-38,3.34-56.58,27.69l8,3.47A1.85,1.85,0,0,1,15,38.42a18.62,18.62,0,0,0-2.12,5.31,31.76,31.76,0,0,0-.8,6.34c-.06,2,0,3.28,0,4.31.13,3.15.16,3.95-2.51,9.42L4.93,73.24a1.91,1.91,0,0,1-.15.28,5.85,5.85,0,0,0-1.08,3,2.51,2.51,0,0,0,.23,1.18,1.64,1.64,0,0,0,.59.68,2.1,2.1,0,0,0,1.06.32h.15l5.33.31a1.61,1.61,0,0,1,.54-.09h.19l4.91.42A1.86,1.86,0,1,1,16.4,83h-.1l-2.77-.16v.38c0,2.42.06,4.81.26,7.23A17.89,17.89,0,0,0,18,91.55a6.51,6.51,0,0,0,3.56-.47ZM90.48,52a1.89,1.89,0,0,0,1.9-1.85V40c.65-5.46,3.05-3.84,5.87-2.15,6.83,4.09,11.37-6.66,5.85-10-4.33-2.6-6.21,1.87-9.38,1.41-1.22-.18-2.08-1.47-2.34-3.43V18.53a1.88,1.88,0,0,0-1.9-1.85H81.74c-7.21-.89-.81-4.77-.81-8.39,0-2.9-2.69-5.25-6-5.25s-6.37,2.35-6.37,5.25c0,3.41,6.62,7.5-.69,8.39H56.9A1.88,1.88,0,0,0,55,18.53v7.31c.56,3.12,2.73,3.84,5.5,1.78a7.29,7.29,0,0,1,3.65-1.51A5.64,5.64,0,0,1,69.54,32c0,3.24-2.41,6.57-5.39,6.57a5,5,0,0,1-2.89-.92c0,.25-5.2-4.55-6.26,1.33v11.2A1.88,1.88,0,0,0,56.9,52H74.48c.23-1.07-.53-2.3-1.23-3.36-5.55-8.36,16-9.19,10.49.26-.28.47-.55.92-.76,1.36a3.77,3.77,0,0,0-.4,1.74Zm15-8.55c.24,1.15.44,2.31.6,3.46C108.61,64.82,101.42,84,79.29,97a1.68,1.68,0,0,1-.6.22,67.73,67.73,0,0,0,.49,7.91,61.07,61.07,0,0,0,3.49,14.27,1.87,1.87,0,0,1-3.49,1.32,64.92,64.92,0,0,1-3.7-15.13,76,76,0,0,1-.08-17,1.86,1.86,0,1,1,3.7.38c-.14,1.36-.24,2.69-.31,4,19.53-12,25.89-29.36,23.65-45.51-.14-1-.31-2-.52-3a9.67,9.67,0,0,0,3.6-1ZM37.62,53.66a1.86,1.86,0,1,1-1.85,3.23,10.41,10.41,0,0,0-5.19-1.49,10.48,10.48,0,0,0-5.23,1.49,1.85,1.85,0,0,1-1.82-3.23,14.21,14.21,0,0,1,7-2,14,14,0,0,1,7,2ZM30,57.34A2.61,2.61,0,1,0,32.6,60,2.6,2.6,0,0,0,30,57.34Z"/></svg>